<?xml version="1.0" encoding="UTF-8"?>
<svg id="Layer_1" data-name="Layer 1" xmlns="http://www.w3.org/2000/svg" version="1.1" viewBox="0 0 800 800">
  <defs>
    <style>
      .cls-1 {
        fill: #cff09e;
      }

      .cls-1, .cls-2 {
        stroke-width: 0px;
      }

      .cls-2 {
        fill: #507c5c;
      }
    </style>
  </defs>
  <path class="cls-1" d="M182.1,463h435.8c57.5,0,90.4-65.6,55.9-111.7L446.9,47.8c-23.4-31.3-70.4-31.3-93.8,0L126.1,351.3c-34.5,46.1-1.6,111.7,55.9,111.7Z"/>
  <path class="cls-2" d="M106.6,336.7L333.6,33.3C349.4,12.1,373.6,0,400,0c26.4,0,50.6,12.1,66.4,33.3l227,303.4c21.5,28.7,24.9,66.5,8.8,98.6-16.1,32.1-48.4,52-84.2,52h-104c-3.4,173-145.1,312.7-318.9,312.7-13.5,0-24.4-10.9-24.4-24.4v-179.3c0-13.5,10.9-24.4,24.4-24.4,21.9,0,43.1-7.9,59.6-22.3,10.1-8.8,25.5-7.8,34.4,2.4,8.8,10.1,7.8,25.5-2.4,34.4-19.2,16.7-42.5,27.8-67.2,32.2v131.7c135.6-12.2,242.6-124.9,245.8-262.9H182.1c-35.9,0-68.2-19.9-84.2-52-16.1-32.1-12.7-69.9,8.8-98.6ZM141.4,413.5c7.9,15.7,23.1,25.1,40.7,25.1h435.8c17.6,0,32.8-9.4,40.7-25.1,7.9-15.7,6.3-33.5-4.2-47.6L427.4,62.4c-6.5-8.7-16.5-13.7-27.4-13.7s-20.9,5-27.4,13.7l-227,303.4c-10.5,14.1-12.1,31.9-4.3,47.6Z"/>
</svg>